<?xml version="1.0" standalone="no"?><!DOCTYPE svg PUBLIC "-//W3C//DTD SVG 1.1//EN" "http://www.w3.org/Graphics/SVG/1.1/DTD/svg11.dtd"><svg t="1518081469067" class="icon" style="" viewBox="0 0 1024 1024" version="1.1" xmlns="http://www.w3.org/2000/svg" p-id="4004" xmlns:xlink="http://www.w3.org/1999/xlink" width="200" height="200"><defs><style type="text/css"></style></defs><path d="M219.428571 804.571429q0 45.714286-32.036571 77.677714t-77.677714 32.036571-77.677714-32.036571-32.036571-77.677714 32.036571-77.677714 77.677714-32.036571 77.677714 32.036571 32.036571 77.677714zM219.428571 512q0 45.714286-32.036571 77.677714t-77.677714 32.036571-77.677714-32.036571-32.036571-77.677714 32.036571-77.677714 77.677714-32.036571 77.677714 32.036571 32.036571 77.677714zM1024 749.714286l0 109.714286q0 7.460571-5.412571 12.873143t-12.873143 5.412571l-694.857143 0q-7.460571 0-12.873143-5.412571t-5.412571-12.873143l0-109.714286q0-7.460571 5.412571-12.873143t12.873143-5.412571l694.857143 0q7.460571 0 12.873143 5.412571t5.412571 12.873143zM219.428571 219.428571q0 45.714286-32.036571 77.677714t-77.677714 32.036571-77.677714-32.036571-32.036571-77.677714 32.036571-77.677714 77.677714-32.036571 77.677714 32.036571 32.036571 77.677714zM1024 457.142857l0 109.714286q0 7.460571-5.412571 12.873143t-12.873143 5.412571l-694.857143 0q-7.460571 0-12.873143-5.412571t-5.412571-12.873143l0-109.714286q0-7.460571 5.412571-12.873143t12.873143-5.412571l694.857143 0q7.460571 0 12.873143 5.412571t5.412571 12.873143zM1024 164.571429l0 109.714286q0 7.460571-5.412571 12.873143t-12.873143 5.412571l-694.857143 0q-7.460571 0-12.873143-5.412571t-5.412571-12.873143l0-109.714286q0-7.460571 5.412571-12.873143t12.873143-5.412571l694.857143 0q7.460571 0 12.873143 5.412571t5.412571 12.873143z" p-id="4005"></path></svg>