<?xml version="1.0" standalone="no"?><!DOCTYPE svg PUBLIC "-//W3C//DTD SVG 1.1//EN" "http://www.w3.org/Graphics/SVG/1.1/DTD/svg11.dtd"><svg t="1518081460089" class="icon" style="" viewBox="0 0 1024 1024" version="1.1" xmlns="http://www.w3.org/2000/svg" p-id="3808" xmlns:xlink="http://www.w3.org/1999/xlink" width="200" height="200"><defs><style type="text/css"></style></defs><path d="M217.728 925.728q0 45.728-31.136 72t-77.44 26.272q-60.576 0-98.272-37.728l32.576-50.272q28 25.728 60.576 25.728 16.576 0 28.864-8.288t12.288-24.288q0-36.576-60-32l-14.848-32q4.576-5.728 18.56-24.864t24.288-30.848 21.152-22.016l0-0.576q-9.152 0-27.712 0.576t-27.712 0.576l0 30.272-60.576 0 0-86.848 190.272 0 0 50.272-54.272 65.728q29.152 6.848 46.272 28t17.152 50.272zM218.848 567.424l0 90.848-206.848 0q-3.424-20.576-3.424-30.848 0-29.152 13.44-53.152t32.288-38.848 37.728-27.136 32.288-24.864 13.44-25.728q0-14.272-8.288-22.016t-22.56-7.712q-26.272 0-46.272 33.152l-48.576-33.728q13.728-29.152 40.864-45.44t60.288-16.288q41.728 0 70.272 23.712t28.576 64.288q0 28.576-19.424 52.288t-42.848 36.864-43.136 28.864-20.288 30.016l72.576 0 0-34.272 60 0zM1024 749.728l0 109.728q0 7.424-5.44 12.864t-12.864 5.44l-694.848 0q-7.424 0-12.864-5.44t-5.44-12.864l0-109.728q0-8 5.152-13.152t13.152-5.152l694.848 0q7.424 0 12.864 5.44t5.44 12.864zM219.424 236l0 56.576-191.424 0 0-56.576 61.152 0q0-23.424 0.288-69.728t0.288-69.152l0-6.848-1.152 0q-4.576 9.728-28.576 30.848l-40.576-43.424 77.728-72.576 60.576 0 0 230.848 61.728 0zM1024 457.152l0 109.728q0 7.424-5.44 12.864t-12.864 5.44l-694.848 0q-7.424 0-12.864-5.44t-5.44-12.864l0-109.728q0-8 5.152-13.152t13.152-5.152l694.848 0q7.424 0 12.864 5.44t5.44 12.864zM1024 164.576l0 109.728q0 7.424-5.44 12.864t-12.864 5.44l-694.848 0q-7.424 0-12.864-5.44t-5.44-12.864l0-109.728q0-7.424 5.44-12.864t12.864-5.44l694.848 0q7.424 0 12.864 5.44t5.44 12.864z" p-id="3809"></path></svg>