<?xml version="1.0" standalone="no"?><!DOCTYPE svg PUBLIC "-//W3C//DTD SVG 1.1//EN" "http://www.w3.org/Graphics/SVG/1.1/DTD/svg11.dtd"><svg t="1518081845037" class="icon" style="" viewBox="0 0 1024 1024" version="1.1" xmlns="http://www.w3.org/2000/svg" p-id="11879" xmlns:xlink="http://www.w3.org/1999/xlink" width="200" height="200"><defs><style type="text/css"></style></defs><path d="M592.044 512l177.598 177.598 72.039-72.04c9.005-9.505 23.013-12.006 35.02-7.004 11.507 5.003 19.511 16.51 19.511 29.517l0 224.123c0 17.51-14.508 32.018-32.018 32.018L640.07 896.212c-13.007 0-24.514-8.004-29.517-20.011-5.002-11.507-2.501-25.515 7.004-34.52l72.04-72.039L512 592.044 334.402 769.642l72.04 72.039c9.505 9.005 12.007 23.013 7.004 34.52-5.002 12.007-16.509 20.011-29.516 20.011L159.807 896.212c-17.51 0-32.018-14.508-32.018-32.018L127.789 640.07c0-13.007 8.004-24.514 20.011-29.517 11.506-5.002 25.514-2.501 34.519 7.004l72.04 72.04L431.956 512 254.358 334.402l-72.04 72.04c-6.003 6.003-14.007 9.505-22.512 9.505-4.002 0-8.505-1-12.007-2.501-12.006-5.002-20.011-16.509-20.011-29.516L127.788 159.807c0-17.51 14.508-32.018 32.018-32.018L383.93 127.789c13.007 0 24.514 8.004 29.516 20.011 5.003 11.507 2.501 25.514-7.004 34.519l-72.04 72.04L512 431.956l177.598-177.598-72.04-72.04c-9.505-9.005-12.006-23.012-7.004-34.519 5.003-12.006 16.51-20.011 29.517-20.011l224.123 0c17.51 0 32.018 14.508 32.018 32.018L896.212 383.93c0 13.007-8.004 24.514-19.511 29.516-4.002 1.501-8.505 2.501-12.507 2.501-8.505 0-16.509-3.502-22.513-9.505l-72.039-72.04L592.044 512z" p-id="11880"></path></svg>