<?xml version="1.0" standalone="no"?><!DOCTYPE svg PUBLIC "-//W3C//DTD SVG 1.1//EN" "http://www.w3.org/Graphics/SVG/1.1/DTD/svg11.dtd"><svg t="1518081411368" class="icon" style="" viewBox="0 0 1024 1024" version="1.1" xmlns="http://www.w3.org/2000/svg" p-id="3071" xmlns:xlink="http://www.w3.org/1999/xlink" width="200" height="200"><defs><style type="text/css"></style></defs><path d="M1005.714286 512q8 0 13.142857 5.142857t5.142857 13.142857v36.571429q0 8-5.142857 13.142857t-13.142857 5.142857H18.285714q-8 0-13.142857-5.142857t-5.142857-13.142857v-36.571429q0-8 5.142857-13.142857t13.142857-5.142857h987.428572zM276 475.428571q-16-20-29.142857-45.714285-27.428571-56-27.428572-107.428572 0-103.428571 76.571429-176.571428 76-72.571429 224.571429-72.571429 28.571429 0 95.428571 10.857143 37.714286 6.857143 101.142857 27.428571 5.714286 21.714286 12 67.428572 8 70.285714 8 104.571428 0 10.285714-2.857143 25.714286l-6.857143 1.714286-48-3.428572-8-1.142857q-28.571429-85.142857-58.857142-117.142857-50.285714-52-120-52-65.142857 0-104 33.714286-38.285714 33.142857-38.285715 83.428571 0 41.714286 37.714286 80t159.428571 73.714286q39.428571 11.428571 98.857143 37.714286 33.142857 16 54.285715 29.714285H276z m289.714286 146.285715h234.857143q4 22.285714 4 52.571428 0 63.428571-23.428572 121.142857-13.142857 32-40.571428 59.428572-21.142857 20-62.285715 46.285714-45.714286 27.428571-87.428571 37.714286-45.714286 12-116 12-65.142857 0-111.428572-13.142857l-80-22.857143q-32.571429-9.142857-41.142857-16-4.571429-4.571429-4.571428-12.571429v-7.428571q0-61.714286-1.142857-89.142857-0.571429-17.142857 0-38.857143l1.142857-21.142857v-25.142857l58.285714-1.142858q8.571429 19.428571 17.142857 40.571429t12.857143 32 7.142857 15.428571q20 32.571429 45.714286 53.714286 24.571429 20.571429 60 32.571429 33.714286 12.571429 75.428571 12.571428 36.571429 0 79.428572-15.428571 44-14.857143 69.714285-49.142857 26.857143-34.857143 26.857143-73.714286 0-48-46.285714-89.714286-19.428571-16.571429-78.285714-40.571428z" p-id="3072"></path></svg>