<?xml version="1.0" standalone="no"?><!DOCTYPE svg PUBLIC "-//W3C//DTD SVG 1.1//EN" "http://www.w3.org/Graphics/SVG/1.1/DTD/svg11.dtd"><svg t="1518076866078" class="icon" style="" viewBox="0 0 1607 1024" version="1.1" xmlns="http://www.w3.org/2000/svg" p-id="4042" xmlns:xlink="http://www.w3.org/1999/xlink" width="313.8671875" height="200"><defs><style type="text/css"></style></defs><path d="M0 731.459874c0 144.991797 108.542977 265.294814 251.124331 288.522719l50.254084 4.017405 1004.351236 0 50.254084-4.017405C1498.419 996.754688 1606.961977 876.451671 1606.961977 731.459874c0-127.388259-83.854198-235.785148-200.943291-275.959198C1401.78215 203.207646 1189.809257 0 929.043154 0c-188.087595 0-350.755973 105.694272-428.474498 259.305228C463.827662 219.861616 410.651829 195.026749 351.486411 195.026749c-110.95342 0-200.870247 87.360297-200.870247 195.026749 0 28.121835 6.135673 54.855838 17.092232 79.033312C68.368928 516.857407 0 616.416006 0 731.459874zM803.480989 365.218631l292.174905 328.696768-147.037021 0L948.618873 1022.612167 657.028317 1022.612167 657.028317 693.915399 511.306084 693.915399 803.480989 365.218631z" p-id="4043"></path></svg>